. 
  
http://www.torrentday.com/        :     The Hottest Private Tracker On The Net!!!
 
http://www.torrentday.com          :     Once & For all ;)


               www . TorrentDay . Com 

(((((((((((((= Enjoy No RAR releases =))))))))))))))))))))


...................................NFO:....................................

.[img]http://img585.imageshack.us/img585/5439/mrnice.jpg[/img]

Mr Nice 2010 BDRip XVID AC3 HQ Hive-CM8



[b]Thx Hive

CM8 Doing It Right The First Time :D

Why download a touched up rip of a rip BRrip
Get the real deal BDRip
Enjoy

Source UK Bluray

Video: 720x384 @bitrate 1600 2pass
Audio: DTS to AC3 5.1 @448
Sample: yes included
Subs: yes english in srt /subs[/b]
 
http://www.imdb.com/title/tt1183911/


General
Complete name                    : Mr.Nice.2010.BDRip.XVID.AC3.HQ.Hive-CM8.avi
Format                           : AVI
Format/Info                      : Audio Video Interleave
File size                        : 1.74 GiB
Duration                         : 2h 0mn
Overall bit rate                 : 2 057 Kbps
Writing application              : Nandub v1.0rc2
Writing library                  : Nandub build 1853/release

Video
ID                               : 0
Format                           : MPEG-4 Visual
Format profile                   : Advanced Simple@L5
Format settings, BVOP            : Yes
Format settings, QPel            : Yes
Format settings, GMC             : No warppoints
Format settings, Matrix          : Default (H.263)
Muxing mode                      : Packed bitstream
Codec ID                         : XVID
Codec ID/Hint                    : XviD
Duration                         : 2h 0mn
Bit rate                         : 1 599 Kbps
Width                            : 720 pixels
Height                           : 384 pixels
Display aspect ratio             : 1.850
Frame rate                       : 23.976 fps
Color space                      : YUV
Chroma subsampling               : 4:2:0
Bit depth                        : 8 bits
Scan type                        : Progressive
Bits/(Pixel*Frame)               : 0.241
Stream size                      : 1.35 GiB (78%)
Writing library                  : XviD 1.2.1 (UTC 2008-12-04)

Audio
ID                               : 1
Format                           : AC-3
Format/Info                      : Audio Coding 3
Mode extension                   : CM (complete main)
Codec ID                         : 2000
Duration                         : 2h 0mn
Bit rate mode                    : Constant
Bit rate                         : 448 Kbps
Channel(s)                       : 6 channels
Channel positions                : Front: L C R, Side: L R, LFE
Sampling rate                    : 48.0 KHz
Bit depth                        : 16 bits
Stream size                      : 388 MiB (22%)
Alignment                        : Split accross interleaves
Interleave, duration             : 42 ms (1.00 video frame)
Interleave, preload duration     : 500 ms




Rhys Ifans - Howard Marks                                
Chlo Sevigny - Judy Marks                              
David Thewlis - Jim McCann                              
Elsa Pataky - Ilze                                      
Andrew Tiernan - Alan Marcuson
Omid Djalili - Saleem Makik
Jack Huston - Graham Plinston        
Ania Sowinski - Mandy
Christian McKay - Hamilton McMillan
Kinsey Packard - Patti Hayes
Ken Russell - Russell Miegs        
Craig Stevenson - Webster
Luis Tosar - Lovato  



The life story of Howard Marks, an elite British drug smuggler.  


[img]http://img138.imageshack.us/img138/6483/mmrmmrmrrr.png[/img]
[img]http://img543.imageshack.us/img543/6548/mmmrmrrr.png[/img]
[img]http://img842.imageshack.us/img842/636/mmmrrr.png[/img]
[img]http://img69.imageshack.us/img69/5703/mmrr.png[/img]
[img]http://img546.imageshack.us/img546/5396/86163355.png[/img]
[img]http://img695.imageshack.us/img695/7530/mmmrmrmrrr.png[/img]
[img]http://img98.imageshack.us/img98/5313/mmrmmmrrmrrr.png[/img]




Greetz

iNK,LUSi,,MAGNET,CLASSiFiED,THC,LEGi0N,T0XiC,IMAGiNE,ViSiON,WBZ,FLAWL3SS,NOVA
Vik,Rapeseed,D2U,SAFC,goldadvance,MEMORY100,KaN1vE,Unevano,Pinnz,Wayne,Mr Hive
and all P2P groups 
Great Work Guys :D